<svg width="2000" height="2000" viewBox="0 0 2000 2000" fill="none" xmlns="http://www.w3.org/2000/svg">
<path d="M1382.82 1264.74L1381.9 1266.06H1383.58L1382.82 1264.74ZM1330.33 1327.74L1329.06 1329.03C1285.88 1372.3 1234.59 1406.62 1178.12 1430.05C1121.66 1453.47 1061.13 1465.52 1000 1465.52C938.871 1465.52 878.342 1453.47 821.877 1430.05C765.413 1406.62 714.122 1372.3 670.94 1329.03L669.67 1327.74H589.41C685.67 1448.18 833.82 1525.33 1000 1525.33C1166.18 1525.33 1314.33 1448.18 1410.59 1327.74H1330.33ZM571.18 1181.12C533.141 1090.54 524.542 990.301 546.6 894.57L505.24 822.94C480.238 893.044 470.381 967.651 476.317 1041.84C482.254 1116.03 503.849 1188.12 539.68 1253.36L575.58 1191.18C574.073 1187.85 572.607 1184.5 571.18 1181.12ZM953.88 476.64C800.71 490 666.36 569 579.19 685.43H657.06C661.573 680.51 666.2 675.68 670.94 670.94C737.903 603.806 823.831 558.806 917.15 542L954.37 477.53L954.92 476.59L953.88 476.64ZM1494.06 821L1452.89 892.32C1475.62 988.713 1467.22 1089.83 1428.89 1181.15C1425.7 1188.69 1422.32 1196.13 1418.75 1203.46L1454.04 1264.59C1492.72 1198.07 1516.34 1123.87 1523.26 1047.23C1530.17 970.595 1520.21 893.372 1494.06 821ZM1039.56 476.14L1037.89 476.02L1038.76 477.52L1075.22 540.68C1171.42 556.363 1260.24 601.95 1329.06 670.97C1333.8 675.71 1338.43 680.54 1342.94 685.46H1420.81C1332.4 567.35 1195.46 487.71 1039.56 476.11V476.14ZM1382.82 1264.77L1381.9 1266.09H1383.58L1382.82 1264.77Z" fill="#231F20"/>
<path d="M954.92 476.55L954.37 477.49L953.88 476.64L954.92 476.55Z" fill="#231F20"/>
<path d="M1039.56 476.11L1038.76 477.49L1037.89 475.99L1039.56 476.11Z" fill="#231F20"/>
<path d="M1543.17 728.93V793.31C1513.08 793.31 1483 793.96 1452.98 792.97C1442.09 792.61 1437.68 796.72 1433.73 805.97C1394.12 898.23 1354.29 990.393 1314.24 1082.46C1291.57 1134.84 1268.96 1187.24 1246.4 1239.65C1231.73 1273.65 1217.03 1307.67 1202.28 1341.7C1197.58 1352.58 1193.04 1363.53 1187.28 1377.19C1122.9 1248.68 1059.64 1122.4 995.6 994.55C930.96 1122.55 867.13 1249.05 802.37 1377.35C798.84 1369.35 795.84 1362.68 792.96 1355.98C769.34 1300.8 745.767 1245.6 722.24 1190.38L714.76 1172.88L717.76 1167.23L748.09 1110.67V1110.62L754.36 1098.91C772.2 1140.54 789.3 1180.4 807.23 1222.26C870.5 1097.26 932.82 974.1 996.02 849.2L1184.02 1222.93L1393.41 728.93H1543.17Z" fill="#231F20"/>
<path d="M1264.39 1005.48L1256.67 1023.66L1236.36 1071.48L995.6 623.65C934.55 737.49 874.24 849.65 814.22 961.95C754.847 1073.01 695.657 1184.09 636.65 1295.2H563.09C635.72 1157.93 707.42 1022 779.51 886.26C850.67 752.26 922.23 618.51 994.66 482.69C1001.28 494.56 1007.66 505.6 1013.66 516.86C1049.85 584.86 1085.81 652.96 1122.09 720.86C1157.2 786.6 1192.42 852.283 1227.74 917.91L1246.74 953.26C1248.74 956.99 1250.39 961.1 1253.12 964.26C1265 978.1 1267.07 991.79 1264.39 1005.48Z" fill="#231F20"/>
<path d="M585.45 728.54L570.86 728.63C574.9 728.59 578.937 728.537 582.97 728.47C583.84 728.46 584.67 728.48 585.45 728.54Z" fill="#231F20"/>
<path d="M1426.88 1295.2H1352L1330.93 1253.63V1253.55C1324.28 1241.16 1317.46 1228.86 1310.98 1216.38C1305.98 1206.71 1301.19 1196.9 1296.54 1187.04L1293.77 1181.1L1288.6 1170.02L1307.43 1127.44L1313.31 1114.15L1322.06 1094.39L1413.06 1268.52L1425.75 1292.89L1426.88 1295.2Z" fill="#231F20"/>
<path d="M1425.72 1292.88L1413 1268.51C1417.23 1276.62 1421.47 1284.74 1425.72 1292.88Z" fill="#231F20"/>
<path d="M1270.52 991.04L1264.39 1005.48L1264.38 1005.49L1256.66 1023.67L1227.76 917.97L1270.52 991.04Z" fill="#231F20"/>
<path d="M710.61 992.44L670.61 1067.1L667.61 1059.97C657.95 1037.66 648.74 1016.37 639.49 995.09C616.117 941.343 592.723 887.603 569.31 833.87C565.8 825.87 562.31 817.73 558.55 809.8L551.27 793.47H506.27C489.94 793.47 473.5 793.47 456.82 793.47V729.37C460.18 729.14 463.67 728.7 467.16 728.69C492.97 728.69 518.77 728.83 544.57 728.76H545.75C554.123 728.76 562.49 728.703 570.85 728.59L585.44 728.5L595.44 728.43L608.51 759.43L608.74 759.98C638.74 829.24 668.857 898.45 699.09 967.61L710.61 992.44Z" fill="#231F20"/>
<path d="M570.86 728.63C562.5 728.73 554.133 728.787 545.76 728.8H544.58L570.86 728.63Z" fill="#231F20"/>
</svg>
